<?xml version="1.0" standalone="no"?>
<!DOCTYPE svg PUBLIC "-//W3C//DTD SVG 20010904//EN"
 "http://www.w3.org/TR/2001/REC-SVG-20010904/DTD/svg10.dtd">
<svg version="1.0" xmlns="http://www.w3.org/2000/svg"
 width="32.000000pt" height="32.000000pt" viewBox="0 0 32.000000 32.000000"
 preserveAspectRatio="xMidYMid meet">

<g transform="translate(0.000000,32.000000) scale(0.100000,-0.100000)"
fill="#000000" stroke="none">
<path d="M94 265 c-4 -10 -20 -15 -44 -15 -46 0 -50 -8 -50 -105 0 -112 -11
-105 160 -105 171 0 160 -7 160 105 0 97 -4 105 -50 105 -24 0 -40 5 -44 15
-8 21 -124 21 -132 0z m188 -67 c-15 -15 -26 -4 -18 18 5 13 9 15 18 6 9 -9 9
-15 0 -24z m-80 8 c57 -42 28 -135 -42 -135 -70 0 -98 93 -42 135 22 17 62 17
84 0z"/>
<path d="M122 194 c-48 -33 -17 -114 44 -114 51 0 76 78 34 112 -27 22 -49 23
-78 2z m72 -26 c13 -19 14 -25 2 -43 -26 -39 -76 -26 -76 19 0 46 48 62 74 24z"/>
</g>
</svg>
