<?xml version="1.0" standalone="no"?>
<!DOCTYPE svg PUBLIC "-//W3C//DTD SVG 20010904//EN"
 "http://www.w3.org/TR/2001/REC-SVG-20010904/DTD/svg10.dtd">
<svg version="1.0" xmlns="http://www.w3.org/2000/svg"
 width="32.000000pt" height="32.000000pt" viewBox="0 0 32.000000 32.000000"
 preserveAspectRatio="xMidYMid meet">

<g transform="translate(0.000000,32.000000) scale(0.100000,-0.100000)"
fill="#000000" stroke="none">
<path d="M7 313 c-4 -3 -7 -67 -7 -140 l0 -134 33 -14 c68 -28 88 -29 94 -6 4
15 13 21 32 21 15 0 32 5 39 12 14 14 16 98 2 98 -5 0 -10 -18 -10 -40 0 -38
-2 -40 -30 -40 l-30 0 0 110 0 110 30 0 c27 0 30 -3 30 -30 0 -16 5 -30 10
-30 14 0 12 64 -2 78 -13 13 -179 17 -191 5z"/>
<path d="M240 226 c0 -21 -6 -25 -32 -28 -18 -2 -33 -7 -33 -13 0 -5 15 -11
33 -13 26 -3 32 -7 32 -28 0 -32 10 -30 50 11 l34 35 -29 30 c-35 36 -55 38
-55 6z"/>
</g>
</svg>
