<?xml version="1.0" encoding="UTF-8"?>
<!DOCTYPE svg PUBLIC "-//W3C//DTD SVG 1.1//EN" "http://www.w3.org/Graphics/SVG/1.1/DTD/svg11.dtd">
<svg xmlns="http://www.w3.org/2000/svg" version="1.1" width="24px" height="24px" style="shape-rendering:geometricPrecision; text-rendering:geometricPrecision; image-rendering:optimizeQuality; fill-rule:evenodd; clip-rule:evenodd" xmlns:xlink="http://www.w3.org/1999/xlink">
<g><path style="opacity:0.919" fill="#fbdb52" d="M 6.5,-0.5 C 9.83333,-0.5 13.1667,-0.5 16.5,-0.5C 17.1667,0.166667 17.8333,0.833333 18.5,1.5C 15.4723,3.5064 12.1389,4.83974 8.5,5.5C 8.16667,3.16667 6.83333,1.83333 4.5,1.5C 5.16667,0.833333 5.83333,0.166667 6.5,-0.5 Z"/></g>
<g><path style="opacity:1" fill="#c67738" d="M 4.5,1.5 C 6.83333,1.83333 8.16667,3.16667 8.5,5.5C 8.5,6.16667 8.16667,6.5 7.5,6.5C 6.26515,6.27858 5.26515,5.61191 4.5,4.5C 2.92464,5.45645 1.25797,6.12312 -0.5,6.5C -0.5,6.16667 -0.5,5.83333 -0.5,5.5C 0.558761,3.44456 2.22543,2.11123 4.5,1.5 Z"/></g>
<g><path style="opacity:1" fill="#47465a" d="M 23.5,1.5 C 23.5,2.16667 23.5,2.83333 23.5,3.5C 22.596,4.20895 22.2627,5.20895 22.5,6.5C 20.4418,5.06694 18.1085,4.40027 15.5,4.5C 15.9926,6.80562 16.3259,9.13895 16.5,11.5C 14.1141,9.92454 11.4475,8.92454 8.5,8.5C 7.73209,9.26253 7.23209,10.2625 7,11.5C 6.36026,9.73498 6.52692,8.06831 7.5,6.5C 8.16667,6.5 8.5,6.16667 8.5,5.5C 12.1389,4.83974 15.4723,3.5064 18.5,1.5C 20.2341,0.437952 21.9008,0.437952 23.5,1.5 Z"/></g>
<g><path style="opacity:1" fill="#cfa186" d="M 22.5,6.5 C 22.8333,6.5 23.1667,6.5 23.5,6.5C 23.5,7.16667 23.5,7.83333 23.5,8.5C 21.8564,8.81018 20.8564,9.81018 20.5,11.5C 18.8958,12.287 18.2291,13.6203 18.5,15.5C 18.1667,15.5 17.8333,15.5 17.5,15.5C 17.5674,14.0413 17.2341,12.7079 16.5,11.5C 16.3259,9.13895 15.9926,6.80562 15.5,4.5C 18.1085,4.40027 20.4418,5.06694 22.5,6.5 Z"/></g>
<g><path style="opacity:1" fill="#eabfa3" d="M 7.5,6.5 C 6.52692,8.06831 6.36026,9.73498 7,11.5C 7.23209,10.2625 7.73209,9.26253 8.5,8.5C 8.5,10.8333 8.5,13.1667 8.5,15.5C 6.86152,14.0864 5.52819,14.4197 4.5,16.5C 3.82811,15.0508 3.16145,13.7175 2.5,12.5C 1.5,11.5 0.5,10.5 -0.5,9.5C -0.5,8.5 -0.5,7.5 -0.5,6.5C 1.25797,6.12312 2.92464,5.45645 4.5,4.5C 5.26515,5.61191 6.26515,6.27858 7.5,6.5 Z"/></g>
<g><path style="opacity:1" fill="#ebc6b0" d="M 8.5,8.5 C 11.4475,8.92454 14.1141,9.92454 16.5,11.5C 17.2341,12.7079 17.5674,14.0413 17.5,15.5C 16.7659,16.7079 16.4326,18.0413 16.5,19.5C 15.5,18.8333 14.5,18.1667 13.5,17.5C 12.8485,18.0906 12.1818,18.7573 11.5,19.5C 10.8182,18.7573 10.1515,18.0906 9.5,17.5C 9.16667,16.8333 8.83333,16.1667 8.5,15.5C 8.5,13.1667 8.5,10.8333 8.5,8.5 Z"/></g>
<g><path style="opacity:0.9" fill="#fadd5b" d="M 23.5,8.5 C 23.5,11.1667 23.5,13.8333 23.5,16.5C 23.1667,16.5 22.8333,16.5 22.5,16.5C 22.6085,14.4862 21.9418,12.8195 20.5,11.5C 20.8564,9.81018 21.8564,8.81018 23.5,8.5 Z"/></g>
<g><path style="opacity:0.89" fill="#f9de54" d="M -0.5,9.5 C 0.5,10.5 1.5,11.5 2.5,12.5C 0.895779,13.287 0.229113,14.6203 0.5,16.5C 0.166667,16.5 -0.166667,16.5 -0.5,16.5C -0.5,14.1667 -0.5,11.8333 -0.5,9.5 Z"/></g>
<g><path style="opacity:1" fill="#6eb8de" d="M 2.5,12.5 C 3.16145,13.7175 3.82811,15.0508 4.5,16.5C 5.52819,14.4197 6.86152,14.0864 8.5,15.5C 8.83333,16.1667 9.16667,16.8333 9.5,17.5C 7.2729,18.4006 6.2729,20.0672 6.5,22.5C 3.5,21.5 1.5,19.5 0.5,16.5C 0.229113,14.6203 0.895779,13.287 2.5,12.5 Z"/></g>
<g><path style="opacity:1" fill="#dbe0de" d="M 20.5,11.5 C 21.9418,12.8195 22.6085,14.4862 22.5,16.5C 21.5,19.5 19.5,21.5 16.5,22.5C 16.5,21.5 16.5,20.5 16.5,19.5C 18.1765,18.8166 18.8432,17.4832 18.5,15.5C 18.2291,13.6203 18.8958,12.287 20.5,11.5 Z"/></g>
<g><path style="opacity:1" fill="#f56865" d="M 17.5,15.5 C 17.8333,15.5 18.1667,15.5 18.5,15.5C 18.8432,17.4832 18.1765,18.8166 16.5,19.5C 16.4326,18.0413 16.7659,16.7079 17.5,15.5 Z"/></g>
<g><path style="opacity:1" fill="#3b4560" d="M 9.5,17.5 C 10.8333,24.1667 12.1667,24.1667 13.5,17.5C 14.5,18.1667 15.5,18.8333 16.5,19.5C 16.5,20.5 16.5,21.5 16.5,22.5C 16.5,22.8333 16.5,23.1667 16.5,23.5C 13.1667,23.5 9.83333,23.5 6.5,23.5C 6.5,23.1667 6.5,22.8333 6.5,22.5C 6.2729,20.0672 7.2729,18.4006 9.5,17.5 Z"/></g>
<g><path style="opacity:1" fill="#4f8cb3" d="M 9.5,17.5 C 10.1515,18.0906 10.8182,18.7573 11.5,19.5C 12.1818,18.7573 12.8485,18.0906 13.5,17.5C 12.1667,24.1667 10.8333,24.1667 9.5,17.5 Z"/></g>
</svg>
