<?xml version="1.0" standalone="no"?>
<!DOCTYPE svg PUBLIC "-//W3C//DTD SVG 20010904//EN"
 "http://www.w3.org/TR/2001/REC-SVG-20010904/DTD/svg10.dtd">
<svg version="1.0" xmlns="http://www.w3.org/2000/svg"
 width="32.000000pt" height="32.000000pt" viewBox="0 0 32.000000 32.000000"
 preserveAspectRatio="xMidYMid meet">

<g transform="translate(0.000000,32.000000) scale(0.100000,-0.100000)"
fill="#000000" stroke="none">
<path d="M124 294 c-4 -14 -12 -23 -18 -21 -6 3 -18 8 -27 11 -9 4 -23 -1 -33
-13 -14 -15 -15 -24 -7 -40 15 -27 14 -28 -14 -35 -20 -5 -25 -13 -25 -36 0
-23 5 -31 26 -36 14 -4 23 -12 21 -18 -3 -6 -8 -18 -11 -27 -4 -9 1 -23 13
-33 15 -14 24 -15 40 -7 27 15 28 14 35 -14 5 -20 13 -25 36 -25 23 0 31 5 36
25 7 28 8 29 35 14 16 -8 25 -7 40 7 11 10 17 24 14 31 -3 7 -8 19 -11 27 -3
9 4 16 20 20 21 5 26 13 26 36 0 23 -5 31 -26 36 -14 4 -23 12 -21 18 3 6 8
18 11 27 4 9 -1 23 -13 33 -15 14 -24 15 -40 7 -27 -15 -28 -14 -35 14 -5 20
-13 25 -36 25 -23 0 -31 -5 -36 -26z m61 -74 c52 -20 52 -100 0 -120 -55 -21
-106 30 -85 85 8 21 24 33 57 44 1 1 13 -3 28 -9z"/>
</g>
</svg>
