<?xml version="1.0" encoding="UTF-8"?>
<!DOCTYPE svg PUBLIC "-//W3C//DTD SVG 1.1//EN" "http://www.w3.org/Graphics/SVG/1.1/DTD/svg11.dtd">
<svg xmlns="http://www.w3.org/2000/svg" version="1.1" width="16px" height="16px" style="shape-rendering:geometricPrecision; text-rendering:geometricPrecision; image-rendering:optimizeQuality; fill-rule:evenodd; clip-rule:evenodd" xmlns:xlink="http://www.w3.org/1999/xlink">
<g><path style="opacity:0.879" fill="#ffc106" d="M 6.5,-0.5 C 7.16667,-0.5 7.83333,-0.5 8.5,-0.5C 9.24283,3.33639 11.5762,5.00306 15.5,4.5C 15.5,5.5 15.5,6.5 15.5,7.5C 12.2024,9.4074 11.5358,12.0741 13.5,15.5C 12.5,15.5 11.5,15.5 10.5,15.5C 8.5,12.8333 6.5,12.8333 4.5,15.5C 3.5,15.5 2.5,15.5 1.5,15.5C 3.46422,12.0741 2.79755,9.4074 -0.5,7.5C -0.5,6.5 -0.5,5.5 -0.5,4.5C 3.42383,5.00306 5.75717,3.33639 6.5,-0.5 Z"/></g>
</svg>
